<svg width="16" height="19" viewBox="0 0 16 19" fill="none" xmlns="http://www.w3.org/2000/svg">
<path d="M8.72415 0.00836182C8.15518 1.30003 7.58621 2.5917 7.59484 3.85003C7.60346 4.35003 7.69828 4.83336 7.84483 5.35003C7.77751 5.21934 7.69969 5.09395 7.61208 4.97503C6.88794 4.00003 5.4569 3.16669 4.01725 2.33336C4.01725 3.00003 4.01725 3.65836 4.17242 4.30003L9.6207 9.5667V7.91669C10.9138 7.16669 12.1379 6.40003 12.7845 5.52503C13.5 4.55836 13.5 3.44169 13.5 2.33336C12.0604 3.16669 10.6293 4.00003 9.90518 4.97503C9.81897 5.0917 9.75001 5.20836 9.68104 5.32503C9.83621 4.80003 9.93104 4.2667 9.92242 3.7417C9.9138 2.48336 9.31897 1.2417 8.72415 0.00836182ZM1.24139 3.58336L0.137939 4.6417L4.13794 8.50836C4.23277 9.00003 4.40518 9.45836 4.73277 9.90003C5.37932 10.775 6.60346 11.5417 7.89656 12.2917V14.1917L7.61208 13.725C6.88794 12.75 5.4569 11.9167 4.01725 11.0834C4.01725 12.1917 4.01725 13.3084 4.73277 14.275C5.37932 15.15 6.60346 15.9167 7.89656 16.6667V18.1667H9.6207V16.6667C10.2586 16.3 10.8707 15.925 11.4052 15.5334L14.5604 18.5834L15.6552 17.5167C10.4828 12.525 6.25863 8.43336 1.24139 3.58336ZM13.5 6.70836C12.0604 7.5417 10.6293 8.37503 9.90518 9.35003L9.72415 9.65836L11.3448 11.2167C11.9224 10.8 12.4397 10.3667 12.7845 9.90003C13.5 8.93336 13.5 7.8167 13.5 6.70836ZM13.5 11.0834C13.0086 11.3667 12.5345 11.65 12.0776 11.9417L13.319 13.1417C13.5 12.475 13.5 11.775 13.5 11.0834Z" fill="#233142"/>
</svg>
