<svg width="20" height="20" viewBox="0 0 20 20" fill="none" xmlns="http://www.w3.org/2000/svg">
<path d="M11.9267 9.58337C10.41 11.1517 8.89333 15 8.89333 15C8.89333 15 6.72666 9.58337 4.56 8.33337" stroke="#233142" stroke-width="1.5" stroke-linecap="round" stroke-linejoin="round"/>
<path d="M14.973 6.44168L15.2304 9.00835C15.3968 10.6733 14.0985 12.1558 12.3669 12.3167C10.6683 12.4733 9.12907 11.2792 8.96527 9.64585C8.92629 9.25735 8.96729 8.86527 9.08593 8.492C9.20457 8.11874 9.39851 7.7716 9.6567 7.47042C9.91488 7.16924 10.2322 6.91991 10.5906 6.73668C10.949 6.55344 11.3415 6.4399 11.7455 6.40251L14.5917 6.13918C14.6839 6.13082 14.7759 6.15797 14.8473 6.21467C14.9188 6.27137 14.964 6.353 14.973 6.44168Z" stroke="#233142" stroke-width="1.5" stroke-linecap="round" stroke-linejoin="round"/>
<path d="M9.75999 18.3334C14.5466 18.3334 18.4267 14.6025 18.4267 10C18.4267 5.39752 14.5466 1.66669 9.75999 1.66669C4.97339 1.66669 1.09332 5.39752 1.09332 10C1.09332 14.6025 4.97339 18.3334 9.75999 18.3334Z" stroke="#233142" stroke-width="1.5" stroke-linecap="round" stroke-linejoin="round"/>
</svg>
